<svg width="222" height="222" viewBox="0 0 222 222" fill="none" xmlns="http://www.w3.org/2000/svg">
<g id="#">
<path id="Vector" opacity="0.48" d="M208.515 86.5481L202.784 47.4167L189.974 48.7205C188.893 48.5174 186.838 49.6547 186.351 50.8012L169.529 90.4494C169.008 91.6791 169.807 93.0904 171.018 93.082L175.821 92.8782V185.293C175.821 186.94 177.004 188.122 178.458 187.934L189.973 190.523C191.35 190.343 204.245 183.317 204.245 181.729V89.0892L207.158 89.0739C208.263 89.0678 208.988 87.716 208.515 86.5481Z" fill="#919EAB"/>
<g id="Vector_2" style="mix-blend-mode:multiply" opacity="0.3">
<path d="M188.528 92.4648L175.822 92.8816V185.297C175.822 186.943 177.004 188.126 178.459 187.938L189.974 190.527C190.54 190.451 193.068 189.214 195.838 187.674L188.528 92.4648Z" fill="#DFE3E8"/>
</g>
<path id="Vector_3" d="M219.51 92.2663L216.566 92.2838V184.491C216.566 186.069 215.53 187.494 214.179 187.67L191.11 190.691C189.67 190.88 188.527 189.703 188.527 188.065V92.464L185.403 92.4853C184.205 92.496 183.412 91.0916 183.927 89.8665L201.449 48.2795C202.014 46.9415 203.7 47.0262 204.261 48.4192L220.888 89.7474C221.353 90.9099 220.604 92.2579 219.51 92.2663Z" fill="#DFE3E8"/>
<path id="Vector_4" opacity="0.48" d="M153.053 195.6L141.022 192.776C139.508 192.972 138.277 191.803 138.277 190.165V114.674C138.277 113.037 139.508 111.672 141.022 111.627C149.307 111.398 172.682 110.448 180.234 111.505L169.38 186.258C169.38 187.832 153.053 195.6 153.053 195.6Z" fill="#919EAB"/>
<path id="Vector_5" d="M182.299 114.2V189.023C182.299 189.461 182.133 189.888 181.973 190.28C181.569 191.289 180.662 192.066 179.648 192.195L154.156 195.536C152.653 195.732 151.491 194.572 151.491 192.94V115.236C151.491 113.608 152.635 112.25 154.137 112.204C157.76 112.101 175.707 111.553 179.704 111.441C181.109 111.392 182.299 112.631 182.299 114.2Z" fill="#DFE3E8"/>
<path id="Vector_6" opacity="0.48" d="M112.742 200.893L100.055 198.063C98.3881 198.278 97.0365 197.06 97.0365 195.342L97.4199 142.445C97.4199 140.727 98.7783 139.253 100.439 139.152L128.779 137.442C130.334 137.349 143.372 139.164 143.372 139.164L131.215 191.049C131.213 192.7 114.313 200.687 112.742 200.893Z" fill="#919EAB"/>
<path id="Vector_7" d="M144.221 141.369V193.831C144.221 195.476 143.041 196.971 141.5 197.171L113.53 200.844C111.883 201.061 110.643 199.852 110.643 198.14V143.56C110.643 141.848 111.913 140.381 113.561 140.278C119.167 139.852 135.673 138.981 141.519 138.566C143.059 138.47 144.221 139.727 144.221 141.369Z" fill="#DFE3E8"/>
<path id="Vector_8" opacity="0.48" d="M66.7295 206.291L54.8584 203.901C53.0155 204.139 51.5159 202.867 51.5159 201.06V173.573C51.5159 171.766 53.0155 170.165 54.8584 169.997C63.6881 169.149 91.7418 165.937 99.7308 168.394L89.2513 196.32C89.2513 198.053 68.4667 206.064 66.7295 206.291Z" fill="#919EAB"/>
<path id="Vector_9" d="M102.681 171.235V199.118C102.681 199.657 102.606 200.182 102.367 200.654C101.654 202.2 100.089 202.722 98.5065 202.792L68.6567 206.692C66.8326 206.93 65.2961 205.666 65.2961 203.868V174.801C65.435 170.877 69.8317 171.142 72.6376 170.877C76.3899 170.537 95.4983 168.771 99.6551 168.39C101.346 168.237 102.681 169.509 102.681 171.235Z" fill="#DFE3E8"/>
<path id="Vector_10" opacity="0.48" d="M39.4705 183.572L4.73492 187.199C3.25197 187.352 1.97279 188.298 1.3766 189.53C0.647578 189.891 1.16151 205.294 1.01737 206.143C1.01737 208.051 2.61276 209.61 4.73492 210.371L17.009 212.838C18.9372 212.587 42.9013 203.964 42.9013 202.139L48.6572 195.135L54.481 185.158C54.481 185.158 41.3685 183.374 39.4705 183.572Z" fill="#919EAB"/>
<path id="Vector_11" d="M56.9882 188.19V204.956C56.9882 206.774 55.429 208.444 53.5491 208.689C48.6437 209.322 24.5378 212.479 19.1358 213.184C17.1072 213.45 15.4499 212.13 15.4499 210.233V192.716C15.4499 190.821 17.0966 189.109 19.1245 188.893C21.9319 188.613 49.9599 185.632 53.5521 185.265C55.4298 185.062 56.9882 186.376 56.9882 188.19Z" fill="#DFE3E8"/>
<g id="Vector_12" style="mix-blend-mode:multiply" opacity="0.3">
<path d="M216.569 168.72V184.483C216.569 186.062 215.532 187.487 214.182 187.663L191.113 190.684C189.673 190.873 188.53 189.696 188.53 188.058V92.6223C208.406 95.8282 188.264 149.468 198.626 153.785C201.369 156.705 212.069 159.989 216.569 168.72Z" fill="#DFE3E8"/>
</g>
<g id="Vector_13" style="mix-blend-mode:multiply" opacity="0.3">
<path d="M181.897 190.278C181.493 191.287 180.624 192.064 179.61 192.193L154.137 195.534C152.635 195.73 151.491 194.57 151.491 192.938V115.234C151.555 110.888 157 112.438 159.687 112.035C163.953 115.273 165.238 119.929 163.346 125.864C145.21 183.038 180.575 153.667 181.897 190.278Z" fill="#DFE3E8"/>
</g>
<g id="Vector_14" style="mix-blend-mode:multiply" opacity="0.3">
<path d="M144.221 189.349C144.104 191.868 145.084 196.676 141.5 197.17L113.53 200.843C111.883 201.06 110.643 199.851 110.643 198.14V143.56C110.643 141.848 111.913 140.381 113.561 140.278L122.224 139.743C131.644 146.784 113.874 164.29 125.182 178.995C132.975 189.129 140.76 178.775 144.221 189.349Z" fill="#DFE3E8"/>
</g>
<g id="Vector_15" style="mix-blend-mode:multiply" opacity="0.3">
<path d="M98.5065 202.796L68.6567 206.696C66.8326 206.934 65.2961 205.67 65.2961 203.872V174.806C65.4252 170.887 69.84 171.142 72.6376 170.881C75.0028 186.029 95.2395 181.029 98.5065 202.796Z" fill="#DFE3E8"/>
</g>
<g id="Vector_16" style="mix-blend-mode:multiply" opacity="0.3">
<path d="M46.0284 209.664L19.1264 213.182C17.0986 213.449 15.4519 212.129 15.4519 210.232V192.715C15.5175 188.269 21.3618 188.766 24.4061 188.335C28.1939 195.729 41.5049 195.729 46.0284 209.664Z" fill="#DFE3E8"/>
</g>
<path id="Vector_17" d="M156.75 208.029C156.75 208.029 157.305 210.304 157.322 211.128C157.339 211.952 148.374 213.1 148.234 212.494C148.095 211.887 149.593 210.782 150.679 210.346C153.193 209.363 155.035 208.706 156.75 208.029Z" fill="#22B8CF"/>
<path id="Vector_18" d="M154.383 205.907L154.897 208.749C154.897 208.749 155.998 209.36 156.877 208.749L157.09 205.592L154.383 205.907Z" fill="#FDBAB9"/>
<path id="Vector_19" d="M173.102 210.464C173.102 210.464 173.657 212.738 173.674 213.563C173.692 214.387 164.726 215.538 164.589 214.928C164.451 214.317 165.947 213.216 167.034 212.78C169.548 211.798 171.388 211.14 173.102 210.464Z" fill="#22B8CF"/>
<path id="Vector_20" d="M170.735 208.344L171.249 211.186C171.249 211.186 172.35 211.797 173.229 211.186L173.442 208.029L170.735 208.344Z" fill="#FDBAB9"/>
<path id="Vector_21" d="M150.089 130.965L147.475 137.617C147.576 158.64 149.89 185.668 153.546 207.008L157.761 206.469C159.477 202.21 161.393 195.812 161.006 188.138C160.605 180.133 158.126 179.267 157.673 171.608C157.084 161.685 160.984 158.708 162.228 146.605C162.704 141.978 162.796 135.978 161.554 128.808L150.089 130.965Z" fill="#212B36"/>
<path id="Vector_22" opacity="0.04" d="M161.555 128.806L155.363 129.973C152.138 136.872 151.636 143.822 152.534 146.805C153.804 151.025 156.375 152.202 156.581 156.526C156.785 160.801 154.387 162.113 153.208 167.27C152.393 170.842 152.934 174.02 154.052 180.233C156.504 195.785 162.546 198.433 153.174 204.71C153.297 205.478 153.419 206.249 153.545 207.009L157.761 206.47C159.476 202.21 161.392 195.813 161.006 188.138C160.605 180.134 158.126 179.267 157.673 171.608C157.084 161.685 160.983 158.708 162.228 146.606C162.706 141.977 162.798 135.976 161.555 128.806Z" fill="white"/>
<path id="Vector_23" d="M155.99 134.35C162.192 157.304 167.545 186.589 169.876 209.826L174.53 209.582C184.283 186.168 174.054 180.787 175.192 159.763C175.66 139.601 179.535 121.968 155.99 134.35Z" fill="#212B36"/>
<path id="Vector_24" d="M110.942 109.694C110.942 109.694 107.533 109.399 107.041 108.84C106.548 108.281 106.228 108.252 106.155 107.739C106.081 107.227 104.645 107.474 105.242 108.585C105.839 109.697 104.492 109.113 104.228 109.087C103.624 109.025 101.301 108.956 101.368 109.101C101.436 109.246 100.328 110.704 101.972 111.462C103.414 112.123 102.992 111.832 103.929 111.877C104.866 111.922 107.768 110.961 107.768 110.961L110.253 111.152L110.942 109.694Z" fill="#FDBAB9"/>
<path id="Vector_25" d="M108.945 108.085L108.492 111.533C120.682 123.822 145.744 115.93 149.328 99.1303C150.493 92.1644 149.448 81.4286 141.522 87.2709C127.333 99.102 134.924 109.837 108.945 108.085Z" fill="#22B8CF"/>
<path id="Vector_26" d="M146.464 139.895C144.783 137.529 146.456 134.974 146.506 130.224C146.563 124.84 144.457 124.118 141.742 115.416C138.808 106.203 136.023 93.6903 144.713 85.6672C148.368 83.0506 167.436 83.2185 170.454 84.8054C170.884 84.9924 179.832 89.015 181.031 96.6564C180.017 111.855 168.815 103.915 175.9 133.18C179.628 145.47 171.378 142.931 155.071 142.387C149.948 142.068 147.717 141.661 146.464 139.895Z" fill="#22B8CF"/>
<path id="Vector_27" opacity="0.2" d="M164.337 115.761C165.045 117.751 167.13 119.111 168.89 123.948C169.268 124.992 171.976 132.428 169.397 134.522C167.906 135.731 166.329 133.797 162.483 133.84C154.462 133.992 151.5 142.707 145.753 136.693C145.668 141.654 148.562 141.876 155.071 142.39C168.141 143.209 174.676 143.619 176.526 140.177C177.294 138.747 176.818 137.63 175.902 133.187C174.949 128.561 173.479 121.432 173.612 116.7C174.318 104.316 186.442 101.739 178.651 91.2415C168.308 96.4815 162.114 109.509 164.337 115.761Z" fill="#063963"/>
<path id="Vector_28" d="M185.354 139.806C185.354 139.806 187.435 140.512 187.655 143.999C187.316 143.969 186.523 143.987 186.523 143.987C186.523 143.987 186.67 141.452 185.188 140.938C185.308 140.644 185.354 139.806 185.354 139.806Z" fill="#FDAB76"/>
<path id="Vector_29" d="M177.633 139.476L177.792 141.401C180.107 140.616 183.268 140.58 185.533 141.234C185.845 140.982 185.818 139.773 185.678 139.647C183.191 138.599 179.881 138.718 177.633 139.476Z" fill="#FA541C"/>
<path id="Vector_30" d="M177.534 140.028C177.521 139.559 177.64 139.212 177.848 139.771C177.948 139.885 177.957 141.151 177.89 141.177C177.736 141.899 177.501 140.512 177.534 140.028Z" fill="#B3200E"/>
<path id="Vector_31" d="M175.596 144.062C176.038 144.15 177.106 144.41 177.106 144.41C177.106 144.41 176.408 142.146 177.724 141.124C177.816 140.845 177.755 140.059 177.594 139.765C177.041 140.074 175.821 141.126 175.596 144.062Z" fill="#FDAB76"/>
<path id="Vector_32" d="M166.366 144.563C166.366 144.563 166.421 143.365 168.297 143.386C168.592 143.608 168.607 144.585 168.607 144.585L166.366 144.563Z" fill="#770508"/>
<path id="Vector_33" d="M164.694 168.144L169.829 171.208L172.913 159.636L167.82 144.146L166.366 144.564C166.626 144.952 163.23 168.725 164.694 168.144Z" fill="#FA541C"/>
<path id="Vector_34" d="M167.82 144.146L195.136 144.436L199.287 168.23L169.829 171.208L167.82 144.146Z" fill="#B3200E"/>
<path id="Vector_35" d="M168.297 143.385C167.939 143.344 167.185 143.41 166.779 143.813C168.261 143.188 168.303 145.164 168.393 146.143C168.533 147.602 169.396 156.666 169.396 156.666C169.46 157.43 170.03 158.006 170.702 157.988C171.396 157.739 195.921 156.884 196.53 156.338C197.613 156.229 195.524 145.373 195.678 144.736C195.571 144.133 195.119 143.696 194.594 143.689L168.297 143.385Z" fill="#770508"/>
<path id="Vector_36" d="M168.577 143.391C168.182 143.378 167.511 143.326 167.09 143.6C168.506 143.284 168.554 145.005 168.675 146.148C168.815 147.606 169.677 156.667 169.677 156.667C169.741 157.431 170.311 158.006 170.983 157.989C171.686 157.744 196.456 157.696 197.071 157.118C198.194 157.095 195.788 145.329 195.943 144.737C195.837 144.133 195.385 143.697 194.86 143.691L168.577 143.391Z" fill="#FA541C"/>
<path id="Vector_37" d="M185.435 159.472C180.092 160.878 181.48 160.907 181.101 155.862C181.078 155.267 181.569 155.056 182.042 155.117L185.261 155.533C185.568 155.528 185.825 155.359 185.84 155.732L185.97 159.264C185.984 159.638 185.741 159.444 185.435 159.472Z" fill="#B3200E"/>
<path id="Vector_38" d="M185.677 159.994L182.13 160.319C181.789 160.35 181.494 160.049 181.479 159.649L181.338 155.863C181.323 155.463 181.594 155.131 181.937 155.125L185.494 155.064C185.8 155.059 186.06 155.36 186.074 155.734L186.205 159.266C186.219 159.639 185.983 159.967 185.677 159.994Z" fill="#FDAB76"/>
<path id="Vector_39" d="M181.39 134.646C181.39 134.646 181.088 136.644 180.794 136.832C180.5 137.021 179.564 138.077 179.751 138.755C179.937 139.434 179.229 140.982 180.552 141.357C181.875 141.733 183.395 142.133 183.548 140.934C183.689 138.921 182.921 136.976 183.926 135.325L181.39 134.646Z" fill="#FDBAB9"/>
<path id="Vector_40" d="M168.89 84.2075C164.715 106.53 177.51 105.317 181.711 117.769C182.48 122.462 182.815 131.715 180.551 134.714C182.589 135.538 182.806 135.492 184.347 135.492C197.794 120.829 196.387 92.3809 168.89 84.2075Z" fill="#22B8CF"/>
<path id="Vector_41" d="M163.381 84.1157C157.877 82.6594 156.637 81.4541 155.91 76.1133C155.91 76.1133 152.977 76.9018 153.406 78.4345C153.835 79.9672 153.104 83.4814 151.42 84.2661C150.242 84.8157 148.779 85.0363 148.464 85.4034C148.043 85.5278 148.922 86.7377 151.944 88.4566C162.539 86.7026 163.914 85.2279 163.381 84.1157Z" fill="#FDBAB9"/>
<path id="Vector_42" d="M151.989 75.3964C150.631 74.2453 150.441 74.1133 150.269 73.6912C149.58 71.9967 150.722 69.5068 152.428 68.7794C152.517 68.7412 153.659 68.2664 154.148 68.745C154.563 69.1511 154.051 69.7999 154.384 70.6212C154.696 71.3898 155.376 71.3937 156.711 72.3264C157.811 73.0943 158.494 73.5721 158.701 74.3049C159.128 75.8162 157.466 78.1908 155.833 78.2618C155.247 78.284 155.065 77.9916 151.989 75.3964Z" fill="#063963"/>
<path id="Vector_43" d="M155.694 78.5064C155.694 78.5064 154.475 80.1505 152.392 79.804C150.528 79.4987 150.657 75.2151 151.94 74.4281C152.94 73.8869 153.838 74.3724 154.92 74.9151C155.488 75.125 155.659 75.0754 155.821 75.2425C156.023 75.4509 156.141 75.9295 155.655 77.1347C157.216 75.9883 157.751 78.1202 155.694 78.5064Z" fill="#FDBAB9"/>
<path id="Vector_44" d="M154.815 88.1005C154.815 88.1005 154.224 91.2926 153.3 91.3545C152.763 91.3893 152.229 91.4517 151.699 91.5415L150.665 87.6379C150.665 87.6379 152.012 88.7485 154.815 88.1005Z" fill="#116E95"/>
<path id="Vector_45" d="M153.739 91.0859C153.739 91.0859 155.794 114.435 163.002 118.172C162.817 118.92 163.002 124.995 163.002 124.995C163.002 124.995 156.285 122.948 155.901 123.087C155.517 123.225 147.764 110.224 151.699 91.5424L153.739 91.0859Z" fill="#063963"/>
<path id="Vector_46" d="M98.5595 110.414C98.5595 110.414 101.352 107.926 101.917 107.018C102.482 106.109 102.498 107.89 101.932 108.25C101.366 108.609 109.917 107.41 108.41 108.911C106.902 110.413 105.817 111.825 103.792 111.92C98.5278 112.071 98.6493 114.676 98.5595 110.414Z" fill="#FDBAB9"/>
<path id="Vector_47" d="M43.2946 93.0813C15.8061 104.539 34.2211 145.427 60.8205 126.708C62.0906 125.243 62.7607 123.619 63.1366 122.255L61.7027 118.397C59.9503 116.26 57.5648 115.751 56.2909 115.433C53.1499 114.651 50.7817 116.065 48.9803 114.534C47.9849 113.686 47.7872 112.466 47.6106 111.376C47.0068 107.665 49.0799 105.38 49.2309 103.091C49.9033 98.9381 48.9539 93.5797 43.2946 93.0813Z" fill="#FA541C"/>
<path id="Vector_48" d="M39.2199 216.095C39.0984 215.416 36.9287 214.797 35.8541 215.713C35.3213 216.165 34.9537 217.081 35.2624 217.495C35.3741 217.648 34.9145 217.91 35.3552 217.916C36.817 217.93 39.3414 216.771 39.2199 216.095Z" fill="#FA541C"/>
<path id="Vector_49" d="M36.9461 216.343L34.7145 216.024C35.7484 214.766 35.5575 210.758 35.5575 210.758L37.9302 211.292C37.8781 211.595 36.8156 214.952 36.9461 216.343Z" fill="#FDBAB9"/>
<path id="Vector_50" d="M37.1438 216.061C37.1438 216.061 34.4579 215.436 34.1674 215.974C33.8768 216.513 33.6512 217.959 35.3552 217.91C37.0593 217.861 37.2955 216.519 37.1438 216.061Z" fill="#FA541C"/>
<path id="Vector_51" d="M69.8366 218.641C69.6223 217.987 67.3884 217.684 66.4511 218.738C65.9855 219.26 65.7485 220.22 66.1115 220.586C66.2428 220.719 65.8247 221.044 66.2624 220.989C67.7107 220.799 70.0502 219.293 69.8366 218.641Z" fill="#FA541C"/>
<path id="Vector_52" d="M67.6194 219.21H65.3659C66.2156 217.817 65.4708 213.875 65.4708 213.875L67.8948 214.069C67.8865 214.376 67.2979 217.85 67.6194 219.21Z" fill="#FDBAB9"/>
<path id="Vector_53" d="M73.4595 133.017C81.61 157.378 74.7425 166.572 74.9576 192.289C75.3062 199.412 68.8582 215.838 68.2892 216.201C67.2048 216.29 66.4637 216.227 65.1264 215.853C59.2799 208.473 62.3507 195.056 61.353 181.673C61.2979 180.197 57.563 152.947 57.563 152.947C56.2348 176.871 47.5258 205.439 37.8953 212.727C37.7746 212.777 36.6644 213.185 35.7566 212.58C35.5225 212.429 35.3347 212.216 35.2147 211.963C34.8985 211.712 35.3083 190.648 38.9179 174.796C44.1569 151.786 41.8755 146.401 43.535 136.126C44.9719 127.23 73.4595 133.017 73.4595 133.017Z" fill="#212B36"/>
<path id="Vector_54" d="M74.8573 136.493C69.6735 140.081 51.9626 141.836 43.5321 136.125C45.7773 130.505 44.3011 123.989 43.1435 120.564C41.0915 113.334 37.4388 99.1523 39.8553 95.5083C43.3344 90.2171 63.6156 89.2409 68.1709 93.9474C68.2464 94.0176 67.3453 94.5054 67.7936 95.0305C76.3901 103.485 77.058 128.923 74.8573 136.493Z" fill="#FA541C"/>
<path id="Vector_55" d="M67.777 218.905C67.777 218.905 65.0299 218.665 64.8171 219.24C64.6043 219.815 64.5801 221.276 66.2616 220.988C67.943 220.7 67.9898 219.336 67.777 218.905Z" fill="#FA541C"/>
<path id="Vector_56" d="M61.202 87.3022C62.5605 84.8077 61.4677 81.7461 60.7492 80.7157L60.2836 80.2188C59.9538 79.9531 58.7237 79.5967 58.4324 79.5715C57.6022 79.5295 55.9057 82.5484 54.9352 87.2045C54.378 88.3806 53.883 89.5857 53.4522 90.8149C43.415 91.6256 46.55 93.2979 52.5836 94.4566C60.3734 95.3344 69.3707 92.5385 57.7101 91.2554L58.0226 89.0173C58.3841 88.9357 60.4549 88.5807 61.202 87.3022Z" fill="#FDBAB9"/>
<path id="Vector_57" d="M62.2595 79.3562C61.8821 80.7767 60.8173 82.1163 60.4158 82.2697C60.4052 82.2629 59.7992 82.5659 59.6339 82.8414C59.0898 83.6544 60.2203 85.0886 59.843 85.4161C59.569 85.6542 58.711 85.0069 58.5344 85.2275C58.3646 85.4351 59.0309 86.1435 58.8362 86.39C58.6853 86.5786 58.2498 86.2511 57.8551 86.4954C57.6348 86.648 57.1707 87.6525 56.8522 87.8899C56.1466 88.5937 54.69 88.5273 54.5127 88.1189C54.4968 87.7663 54.6447 87.5846 54.45 86.9152C53.8003 85.5527 52.0185 84.3039 51.9249 82.6705C51.7973 81.4492 52.2034 79.8272 52.9671 78.9303C54.1655 77.5563 55.7277 78.7822 57.5827 77.5999C59.723 76.2351 59.3864 73.4895 60.3607 73.459C61.4331 73.4284 62.9613 76.7289 62.2595 79.3562Z" fill="#770508"/>
<path id="Vector_58" d="M59.4258 84.9459C59.2077 84.3742 58.4832 84.6612 58.3164 85.2795C58.1036 87.1267 60.3858 87.4282 59.4258 84.9459Z" fill="#FDBAB9"/>
<path id="Vector_59" d="M59.4198 83.8359C59.6839 84.2313 60.2167 86.7365 61.1555 86.0541C61.7193 85.5885 61.8219 85.6297 61.8408 85.661C61.8597 85.7175 61.8566 85.3625 61.8657 85.1038C62.3185 86.5495 62.6264 89.2538 60.1956 89.4126C60.1956 89.4126 59.8817 89.4012 58.6915 88.8424C62.2815 87.6051 59.1806 87.3632 59.4198 83.8359Z" fill="#770508"/>
<g id="Vector_60" opacity="0.2">
<path d="M44.6438 131.32C44.6227 131.32 44.6017 131.315 44.5824 131.307C44.563 131.298 44.5456 131.285 44.5314 131.27C44.5172 131.254 44.5064 131.235 44.4997 131.215C44.4931 131.194 44.4908 131.173 44.4929 131.152C44.9034 127.418 44.1382 124.704 43.4628 122.31C42.2598 117.695 41.77 115.795 40.7504 112.036C40.7006 111.852 40.9912 111.766 41.0387 111.959C42.0515 115.86 42.1006 115.663 43.2907 120.526C44.0431 123.882 45.56 126.922 44.6438 131.32Z" fill="#770508"/>
<path d="M74.8575 136.493C69.6736 140.081 51.9628 141.836 43.5323 136.125C43.8341 135.2 44.0711 134.325 44.2545 133.497C50.6761 138.046 53.362 133.622 57.5089 132.581C61.8234 131.498 67.3726 133.749 63.9946 123.67C60.6167 113.59 66.2232 114.324 66.2232 114.324L75.4371 115.919C76.4483 125.574 75.634 133.7 74.8575 136.493Z" fill="#770508"/>
</g>
<path id="Vector_61" d="M98.6169 110.027C99.8741 110.917 100.549 112.126 100.899 112.898C89.1939 139.255 51.3023 121.096 62.2217 96.5548C62.6413 95.9212 64.0224 93.8351 66.1657 93.5954C67.5188 93.4428 69.3617 94.0091 72.2725 97.4562C78.3379 104.639 76.1968 109.124 79.7786 111.225C85.1526 114.376 93.1371 106.149 98.6169 110.027Z" fill="#FA541C"/>
<path id="Vector_62" d="M106.684 108.171C106.684 108.171 106.05 106.94 105.168 107.543C104.285 108.146 103.048 108.561 103.872 108.775C104.696 108.989 106.684 108.171 106.684 108.171Z" fill="#FDBAB9"/>
<g id="Vector_63">
<path d="M69.2094 40.7443L62.8505 51.8885L51.9968 46.047L53.9038 53.2541L64.7561 59.0918L71.1165 47.9522L69.2094 40.7443Z" fill="#22B8CF"/>
<path d="M142.015 23.5634L133.661 20.1621C110.245 -11.2767 57.847 14.5648 65.7832 52.7688C66.0541 54.1763 65.119 55.593 63.6942 55.9281C60.3736 56.5922 60.3895 52.6849 60.0929 50.4034C55.0094 3.83511 120.691 -19.2089 142.015 23.5634Z" fill="#22B8CF"/>
</g>
<g id="Vector_64">
<path d="M138.081 51.2129L144.44 40.068L155.294 45.9103L153.387 38.7032L142.535 32.8662L136.174 44.0051L138.081 51.2129Z" fill="#FDAB76"/>
<path d="M139.533 71.2011C121.857 98.222 79.4753 97.7396 65.4164 68.67L74.259 72.5926C98.1582 102.905 149.357 76.8786 141.509 39.1845C141.238 37.7777 142.173 36.3641 143.598 36.0259C146.919 35.3596 146.901 39.2707 147.199 41.5507C148.294 51.8766 145.627 62.2804 139.533 71.2011Z" fill="#FDAB76"/>
</g>
<path id="Vector_65" d="M132.645 46.8182C131.687 89.4279 70.5949 82.5796 71.1277 42.62C72.6688 -0.647691 132.8 7.15401 132.645 46.8182Z" fill="#FFC81A"/>
<path id="Vector_66" d="M137.14 45.3712C136.182 87.9802 75.089 81.1326 75.6225 41.1731C77.1613 -2.09544 137.295 5.70779 137.14 45.3712Z" fill="#FFE475"/>
<path id="Vector_67" d="M135.835 45.2803C134.918 85.9559 76.615 79.3999 77.1266 41.2753C78.593 -0.010932 135.979 7.41523 135.835 45.2803Z" fill="#FFC81A"/>
<path id="Vector_68" d="M134.9 45.2169C134.013 84.5109 77.7011 78.1633 78.1969 41.3485C79.6119 1.47746 135.038 8.63646 134.9 45.2169Z" fill="#FFE475"/>
<path id="Vector_69" d="M107.335 19.5271C109.425 19.7439 108.693 22.6635 108.813 24.055C111.707 24.3868 114.558 25.0191 117.324 25.9419C117.675 26.0599 117.977 26.2931 118.182 26.6045C118.387 26.9159 118.483 27.2877 118.456 27.6608L118.108 31.2537C117.629 33.6901 115.211 31.7475 113.791 31.4613C112.172 30.9748 110.503 30.6742 108.817 30.5652V38.7707C113.08 39.9774 116.213 41.6002 118.235 43.6413C125.421 51.9216 119.383 62.4627 108.474 62.5108C108.3 63.8581 109.2 67.1746 106.994 67.1342C104.785 67.0441 105.635 63.8237 105.484 62.4276C102.054 62.3017 98.7971 61.872 95.5792 60.9293C94.8358 60.7117 94.3256 59.9958 94.3936 59.2264L94.8026 54.6076C94.8917 53.6092 95.8833 53.0284 96.8214 53.4031C97.9057 53.8368 99.0145 54.2051 100.142 54.5061C101.882 54.9711 103.66 55.2718 105.455 55.4045L105.481 46.277C101.388 45.2526 98.332 43.7357 96.312 41.7262C94.2894 39.7075 93.2769 37.1263 93.2744 33.9825C93.3272 26.7044 98.7541 23.8245 105.85 23.839C106.004 22.5635 105.168 19.3698 107.335 19.5271ZM105.85 30.4805C103.61 30.6423 101.845 31.6956 101.832 33.9977C101.832 34.9743 102.159 35.7902 102.814 36.4456C103.468 37.1011 104.48 37.6234 105.85 38.0127L105.85 30.4805ZM108.474 47.0082V55.3786C109.849 55.3786 110.904 55.0478 111.639 54.3863C113.091 53.165 113.098 50.1652 111.714 48.8142C111.032 48.0809 109.952 47.4789 108.474 47.0082Z" fill="#FFC81A"/>
<g id="Vector_70" style="mix-blend-mode:multiply" opacity="0.16">
<path d="M102.532 49.0273C105.702 33.6269 120.367 30.4111 101.778 14.2375C63.7365 19.6303 76.0363 76.9343 112.02 72.2393C105.691 65.8703 101.737 56.9748 102.532 49.0273Z" fill="#B7860D"/>
</g>
</g>
</svg>
