<svg width="212" height="211" viewBox="0 0 212 211" fill="none" xmlns="http://www.w3.org/2000/svg">
<g id="#">
<path id="Vector" d="M186.384 180.968C158.105 213.497 94.1 212.529 80.3782 207.386C-0.221005 204.611 -19.4464 112.078 20.0343 51.261C40.2388 16.1068 107.177 -26.5988 173.96 25.0279C217.137 59.3374 226.017 141.293 186.384 180.968Z" fill="#919EAB" fill-opacity="0.08"/>
<path id="Vector_2" d="M188.779 158.889C197.246 162.958 203.707 149.061 194.994 145.354C195.616 143.349 196.09 141.3 196.413 139.225C206.047 139.134 206.421 123.294 196.106 124.654C195.705 122.664 195.151 120.708 194.449 118.803C203.071 113.678 195.848 100.265 187.227 106.8C185.911 105.346 184.475 104.006 182.934 102.793C184.795 99.2227 187.733 94.584 184.129 92.8909C175.885 88.9446 172.621 92.4428 170.706 96.5863C168.817 96.0584 166.887 95.6904 164.937 95.4862C164.788 91.6228 166.274 88.4853 162.187 88.5682C153.391 88.4666 150.621 92.2068 150.984 96.7447C149.032 97.3028 147.126 98.0107 145.282 98.862C140.287 89.7303 127.727 99.3908 133.342 107.217C131.858 108.703 130.485 110.296 129.234 111.983C120.766 106.995 113.491 121.341 122.512 125.226C121.89 127.231 121.416 129.28 121.093 131.354C111.459 131.446 111.086 147.285 121.4 145.925C121.801 147.915 122.355 149.872 123.058 151.777C119.383 153.89 118.039 158.844 120.167 162.334C122.173 165.662 128.81 167.206 132.117 164.886C132.286 164.767 130.117 163.91 130.275 163.78C131.591 165.234 133.027 166.574 134.569 167.786C129.254 177 142.504 183.718 146.798 173.993C148.687 174.521 150.617 174.889 152.567 175.094C152.384 185.914 167.475 183.814 166.518 173.835C168.47 173.277 170.377 172.569 172.22 171.718C177.224 180.85 189.781 171.189 184.17 163.363C185.654 161.877 187.027 160.283 188.278 158.596C188.437 158.699 188.604 158.8 188.779 158.889ZM146.503 159.433C117.414 144.526 141.806 96.4661 171.009 111.148C200.098 126.054 175.704 174.117 146.503 159.433Z" fill="#C4CDD5"/>
<path id="Vector_3" d="M197.004 139.204C206.224 138.369 206.061 123.291 196.108 124.654C195.707 122.664 195.153 120.708 194.45 118.803C207.319 110.348 197.202 98.4011 187.23 106.799C185.913 105.346 184.476 104.006 182.935 102.793C184.209 100.764 184.429 98.1979 183.682 96.1672C180.486 101.793 177.337 107.448 174.236 113.13C194.961 127.597 180.257 164.425 155.41 161.891C153.796 166.269 151.799 170.48 149.752 174.679C150.689 174.856 151.629 174.994 152.572 175.093C152.403 179.519 154.79 183.167 162.103 182.81C166.177 182.643 166.767 177.867 166.523 173.835C168.476 173.277 170.382 172.569 172.226 171.718C177.709 179.611 192.726 176.209 184.17 163.363C185.654 161.876 187.027 160.283 188.278 158.596C196.745 163.585 204.02 149.239 194.999 145.354C195.621 143.348 196.095 141.3 196.418 139.225C196.611 139.225 196.806 139.222 197.004 139.204Z" fill="#C4CDD5"/>
<path id="Vector_4" d="M192.427 159.303C200.894 163.372 207.356 149.474 198.642 145.767C199.264 143.762 199.738 141.714 200.061 139.639C209.695 139.547 210.068 123.708 199.754 125.069C199.353 123.078 198.799 121.121 198.096 119.216C206.719 114.091 199.496 100.679 190.875 107.214C189.559 105.76 188.123 104.419 186.582 103.207C191.896 93.9929 178.646 87.275 174.352 97.0005C172.463 96.4725 170.534 96.1045 168.583 95.9004C168.766 85.08 153.676 87.1794 154.632 97.1588C152.68 97.7166 150.773 98.4245 148.93 99.2761C143.935 90.1437 131.375 99.8041 136.989 107.63C135.505 109.117 134.133 110.71 132.882 112.397C124.414 107.409 117.14 121.755 126.16 125.64C125.538 127.645 125.064 129.694 124.741 131.768C115.107 131.86 114.733 147.699 125.048 146.339C125.449 148.329 126.003 150.286 126.705 152.191C118.084 157.316 125.306 170.729 133.926 164.194C135.243 165.647 136.679 166.988 138.22 168.201C132.906 177.414 146.155 184.132 150.45 174.407C152.338 174.935 154.268 175.303 156.218 175.507C156.035 186.327 171.126 184.228 170.17 174.248C172.122 173.691 174.028 172.983 175.872 172.131C180.867 181.263 193.427 171.603 187.813 163.777C189.297 162.29 190.67 160.697 191.921 159.01C192.087 159.113 192.252 159.214 192.427 159.303ZM150.151 159.847C121.061 144.94 145.455 96.8795 174.657 111.561C203.746 126.468 179.352 174.528 150.151 159.847Z" fill="#DFE3E8"/>
<path id="Vector_5" d="M208.526 34.9241C200.211 -1.05386 123.003 -15.3179 99.3577 25.2703C89.2245 49.7602 116.216 90.5613 149.733 91.6226C150.252 98.3719 143.124 104.191 143.124 104.191C159.067 106.079 168.96 95.1313 174.217 86.4208C195.975 76.2398 211.919 53.2025 208.526 34.9241Z" fill="#22B8CF"/>
<path id="Vector_6" opacity="0.24" d="M208.526 34.9236C203.315 8.08187 158.743 -4.80874 129.241 3.71131C113.474 36.4382 181.505 47.2369 180.211 63.0858C179.157 71.8747 159.502 75.9615 158.6 90.4832C158.439 93.0777 158.956 94.7171 157.829 97.0435C155.702 101.428 150.067 103.431 143.813 104.261C159.352 105.759 169.037 95.0001 174.217 86.4181C195.975 76.2393 211.919 53.202 208.526 34.9236Z" fill="#116E95"/>
<path id="Vector_7" d="M130.784 88.5523C131.139 79.5423 131.317 75.0343 129.45 71.6526C119.45 55.5281 97.2218 60.6829 87.5561 71.0641C81.6313 75.9933 82.656 77.5452 79.1592 79.195C69.4943 83.7508 61.2872 72.0999 47.2725 71.8923C31.8128 71.6683 20.2246 85.5372 17.4344 89.1587C-8.72097 131.9 24.581 166.773 58.5499 168.582C96.7924 168.336 78.8844 151.604 89.8594 132.999C90.9049 131.446 94.0791 126.741 99.9478 123.688C106.577 120.24 110.388 122.153 117.252 118.294C130.665 108.876 129.643 105.023 130.784 88.5523Z" fill="#B3200E"/>
<path id="Vector_8" d="M12.8632 138.975C51.007 178.723 37.489 145.715 50.3826 136.948C57.7525 132.68 64.932 140.44 71.5707 136.409C79.9615 131.315 72.6163 116.413 80.7502 108.653C96.7193 97.1004 123.937 123.486 130.827 87.4429C129.661 104.206 131.113 108.687 117.249 118.294C110.385 122.153 106.574 120.236 99.945 123.688C94.0762 126.741 90.9036 131.446 89.8573 132.999C82.3649 144.114 88.5286 153.15 82.9385 160.964C62.6197 179.633 23.9038 163.534 12.8632 138.975Z" fill="#770508"/>
<path id="Vector_9" d="M188.461 123.884C188.461 123.884 190.515 121.43 194.365 121.315C198.216 121.199 203.463 118.913 205.717 118.713C206.261 118.664 206.531 118.507 206.577 118.309C206.672 117.901 204.171 117.305 201.952 117.231C198.017 117.1 195.722 118.609 195.191 117.833C194.598 116.966 197.138 114.598 196.672 114.068C196.312 113.656 194.585 114.977 192.737 115.781C191.425 116.352 186.294 122.489 186.294 122.489L188.461 123.884Z" fill="#FDBAB9"/>
<path id="Vector_10" d="M188.587 119.43C189.541 121.356 190.496 123.282 191.451 125.21C185.476 158.071 155.059 199.211 119.925 165.345C106.165 155.683 106.109 140.906 117.169 126.478C120.58 121.922 127.678 122.903 129.695 128.226C132.876 136.623 138.24 142.455 144.403 143.595C158.825 144.154 164.32 136.253 174.54 128.246C178.923 124.855 183.627 121.902 188.587 119.43Z" fill="#FA541C"/>
<path id="Vector_11" opacity="0.24" d="M132.151 162.634C137.46 161.439 139.465 156.51 146.743 156.066C155.946 155.508 159.9 162.956 165.788 160.996C170.592 159.392 171.389 153.284 174.741 145.422C177.339 139.323 181.846 131.3 190.246 122.782L191.451 125.213C185.464 158.098 155.059 199.204 119.925 165.349C114.588 160.929 109.828 156.237 109.229 149.182C120.208 161.712 127.385 163.707 132.151 162.634Z" fill="#B3200E"/>
<path id="Vector_12" d="M131.045 206.531C131.293 198.294 131.781 186.08 133.031 180.115C136.276 164.633 140.228 160.715 139.169 150.775C137.027 136.098 128.863 125.772 120.881 118.043C111.553 116.456 109.667 115.789 99.8821 120.684C67.1194 136.714 63.6219 187.399 64.7922 204.395C71.3958 206.589 79.5663 208.48 89.3359 209.314C86.9646 192.286 87.828 181.073 91.427 167.436C95.2546 181.227 96.0575 192.352 96.7909 209.726C106.767 209.982 118.176 209.128 131.045 206.531Z" fill="#FA541C"/>
<path id="Vector_13" opacity="0.24" d="M118.083 194.316C121.662 181.635 132.79 173.69 130.046 169.118C127.581 165.01 118.279 170.894 109.98 165.574C100.79 159.683 103.707 147.023 97.2464 145.1C90.9952 143.239 80.1487 152.687 77.5669 163.605C75.354 181.25 88.2603 187.336 70.7235 206.15C76.109 207.564 82.3064 208.713 89.3357 209.313C86.9645 192.285 87.8278 181.072 91.4269 167.435C95.2545 181.226 96.0574 192.351 96.7908 209.725C103.078 209.887 109.935 209.606 117.374 208.726C116.641 204.037 116.715 199.165 118.083 194.316Z" fill="#B3200E"/>
<path id="Vector_14" d="M119.269 101.889C119.269 101.889 119.543 108.946 119.269 113.684C119.068 117.153 122.067 119.128 122.067 119.128C122.067 119.128 123.71 121.95 114.808 122.422C105.906 122.894 97.2354 122.422 97.2354 122.422C97.2354 122.422 105.943 116.63 107.932 115.091C109.922 113.551 110.989 102.045 109.715 94.7568L119.269 101.889Z" fill="#FDBAB9"/>
<path id="Vector_15" d="M121.547 79.1184C121.547 79.1184 126.079 90.047 126.055 96.6506C126.032 103.254 121.414 107.044 117.915 105.413C114.416 103.783 109.136 96.915 109.136 96.915C104.841 101.895 99.3377 84.0408 106.283 87.6294C103.082 75.9196 119.765 71.0427 121.547 79.1184Z" fill="#FDBAB9"/>
<g id="Vector_16">
<path d="M114.069 102.404C107.803 102.404 104.523 92.6889 105.629 92.6777C106.738 92.4223 107.997 102.859 115.473 101.358C116.028 101.225 116.229 102.105 115.667 102.221C115.143 102.341 114.607 102.402 114.069 102.404Z" fill="#116E95"/>
<path d="M119.671 100.947C120.095 102.52 115.65 103.675 115.255 102.096C114.831 100.523 119.275 99.3676 119.671 100.947Z" fill="#116E95"/>
<path d="M107.016 91.1881C108.092 95.549 104.074 96.5931 102.89 92.2606C101.814 87.8997 105.832 86.8556 107.016 91.1881Z" fill="#116E95"/>
</g>
<path id="Vector_17" d="M36.1447 32.8667C41.1717 11.117 87.8453 2.49535 102.138 27.0293C108.262 41.8334 91.947 66.498 71.685 67.1396C71.372 71.2196 75.6806 74.7365 75.6806 74.7365C66.0463 75.8785 60.0625 69.2606 56.8854 63.9946C43.7319 57.8421 34.0938 43.9171 36.1447 32.8667Z" fill="#FFC81A"/>
<g id="Vector_18">
<path d="M62.8722 37.9546C62.7012 43.0257 55.2305 42.6284 55.235 37.6894C55.4135 32.6213 62.8715 33.0261 62.8722 37.9546Z" fill="#B7860D"/>
<path d="M75.7918 38.402C75.6304 43.4283 68.3091 43.0265 68.3061 38.1421C68.4734 33.118 75.7843 33.528 75.7918 38.402Z" fill="#B7860D"/>
<path d="M88.4562 38.8427C88.3068 43.8242 81.1281 43.4186 81.1184 38.588C81.2767 33.6073 88.442 34.0218 88.4562 38.8427Z" fill="#B7860D"/>
</g>
<g id="Vector_19">
<path d="M142.261 53.616H127.518V50.6906C129.118 48.8436 135.558 42.5059 136.596 40.5424C137.497 39.1234 137.54 37.2167 136.559 36.0733C136.076 35.5256 135.386 35.2517 134.491 35.2517C132.442 35.2376 131.354 36.8776 131.374 38.871H127.09C127.259 28.1253 145.803 30.165 140.739 41.1608C139.749 43.494 134.892 48.0923 133.011 50.1738H142.258L142.261 53.616Z" fill="#D2FCF4"/>
<path d="M157.507 45.5195H159.944V48.9618H157.507V53.6154H153.238V48.9618H144.418L144.226 46.2731L153.193 32.1062H157.507V45.5195ZM148.481 45.5195H153.238V37.9271L152.957 38.414L148.481 45.5195Z" fill="#D2FCF4"/>
<path d="M163.756 55.4616H160.579L168.496 32.1062H171.672L163.756 55.4616Z" fill="#D2FCF4"/>
<path d="M188.16 34.4893L179.843 53.6154H175.337L183.669 35.5484H172.973V32.1062H188.16V34.4893Z" fill="#D2FCF4"/>
</g>
</g>
</svg>
